<mxfile host="app.diagrams.net" modified="2020-08-03T10:36:10.392Z" agent="5.0 (Windows NT 10.0; Win64; x64) AppleWebKit/537.36 (KHTML, like Gecko) Chrome/83.0.4103.116 Safari/537.36" etag="WraI-BqiHEdny1qs9NO3" version="13.5.8" type="github">
  <diagram id="2rCr5sYkEA-KqJRIfa-U" name="第 1 页">
    <mxGraphModel dx="934" dy="544" grid="1" gridSize="10" guides="1" tooltips="1" connect="1" arrows="1" fold="1" page="1" pageScale="1" pageWidth="827" pageHeight="1169" math="0" shadow="0">
      <root>
        <mxCell id="0" />
        <mxCell id="1" parent="0" />
        <mxCell id="w-IKHhPdrbWpo2zzyIO_-1" value="AnnotationConfigApplicationContext" style="swimlane;whiteSpace=wrap;swimlaneFillColor=#ffffff;glass=0;shadow=0;sketch=0;rounded=1;" vertex="1" parent="1">
          <mxGeometry x="29.999999999999886" y="160.0000000000001" width="300" height="570" as="geometry" />
        </mxCell>
        <mxCell id="w-IKHhPdrbWpo2zzyIO_-2" value="AnnotationConfigApplicationContext" style="whiteSpace=wrap;html=1;rounded=1;" vertex="1" parent="w-IKHhPdrbWpo2zzyIO_-1">
          <mxGeometry x="10.000000000000114" y="29.999999999999886" width="280" height="30" as="geometry" />
        </mxCell>
        <mxCell id="w-IKHhPdrbWpo2zzyIO_-3" value="register(XX.class)" style="whiteSpace=wrap;html=1;rounded=1;" vertex="1" parent="w-IKHhPdrbWpo2zzyIO_-1">
          <mxGeometry x="10.000000000000114" y="89.99999999999989" width="280" height="30" as="geometry" />
        </mxCell>
        <mxCell id="w-IKHhPdrbWpo2zzyIO_-4" value="" style="edgeStyle=orthogonalEdgeStyle;orthogonalLoop=1;jettySize=auto;html=1;" edge="1" parent="w-IKHhPdrbWpo2zzyIO_-1" source="w-IKHhPdrbWpo2zzyIO_-2" target="w-IKHhPdrbWpo2zzyIO_-3">
          <mxGeometry relative="1" as="geometry" />
        </mxCell>
        <mxCell id="w-IKHhPdrbWpo2zzyIO_-5" value="AnnotatedBeanDefinitionReader" style="swimlane;whiteSpace=wrap;swimlaneFillColor=#ffffff;glass=0;shadow=0;sketch=0;rounded=1;" vertex="1" parent="1">
          <mxGeometry x="369.9999999999999" y="160.0000000000001" width="300.0000000000001" height="570" as="geometry" />
        </mxCell>
        <mxCell id="w-IKHhPdrbWpo2zzyIO_-9" value="register(componentClasses)" style="whiteSpace=wrap;html=1;rounded=1;" vertex="1" parent="w-IKHhPdrbWpo2zzyIO_-5">
          <mxGeometry x="10.000000000000114" y="29.999999999999886" width="280" height="30" as="geometry" />
        </mxCell>
        <mxCell id="w-IKHhPdrbWpo2zzyIO_-11" value="循环：componentClasses" style="whiteSpace=wrap;html=1;rounded=1;" vertex="1" parent="w-IKHhPdrbWpo2zzyIO_-5">
          <mxGeometry x="10.000000000000114" y="89.99999999999989" width="280" height="30" as="geometry" />
        </mxCell>
        <mxCell id="w-IKHhPdrbWpo2zzyIO_-12" value="" style="edgeStyle=orthogonalEdgeStyle;orthogonalLoop=1;jettySize=auto;html=1;" edge="1" parent="w-IKHhPdrbWpo2zzyIO_-5" source="w-IKHhPdrbWpo2zzyIO_-9" target="w-IKHhPdrbWpo2zzyIO_-11">
          <mxGeometry relative="1" as="geometry" />
        </mxCell>
        <mxCell id="w-IKHhPdrbWpo2zzyIO_-13" value="registerBean(componentClass)" style="whiteSpace=wrap;html=1;rounded=1;" vertex="1" parent="w-IKHhPdrbWpo2zzyIO_-5">
          <mxGeometry x="10.000000000000114" y="139.9999999999999" width="280" height="30" as="geometry" />
        </mxCell>
        <mxCell id="w-IKHhPdrbWpo2zzyIO_-14" value="" style="edgeStyle=orthogonalEdgeStyle;orthogonalLoop=1;jettySize=auto;html=1;" edge="1" parent="w-IKHhPdrbWpo2zzyIO_-5" source="w-IKHhPdrbWpo2zzyIO_-11" target="w-IKHhPdrbWpo2zzyIO_-13">
          <mxGeometry relative="1" as="geometry" />
        </mxCell>
        <mxCell id="w-IKHhPdrbWpo2zzyIO_-15" value="doRegisterBean(componentClass,....null)" style="whiteSpace=wrap;html=1;rounded=1;" vertex="1" parent="w-IKHhPdrbWpo2zzyIO_-5">
          <mxGeometry x="10.000000000000114" y="189.9999999999999" width="280" height="30" as="geometry" />
        </mxCell>
        <mxCell id="w-IKHhPdrbWpo2zzyIO_-16" value="" style="edgeStyle=orthogonalEdgeStyle;orthogonalLoop=1;jettySize=auto;html=1;" edge="1" parent="w-IKHhPdrbWpo2zzyIO_-5" source="w-IKHhPdrbWpo2zzyIO_-13" target="w-IKHhPdrbWpo2zzyIO_-15">
          <mxGeometry relative="1" as="geometry" />
        </mxCell>
        <mxCell id="w-IKHhPdrbWpo2zzyIO_-17" value="最终注册到容器中" style="whiteSpace=wrap;html=1;rounded=1;" vertex="1" parent="w-IKHhPdrbWpo2zzyIO_-5">
          <mxGeometry x="10.000000000000114" y="249.9999999999999" width="280" height="30" as="geometry" />
        </mxCell>
        <mxCell id="w-IKHhPdrbWpo2zzyIO_-18" value="" style="edgeStyle=orthogonalEdgeStyle;orthogonalLoop=1;jettySize=auto;html=1;" edge="1" parent="w-IKHhPdrbWpo2zzyIO_-5" source="w-IKHhPdrbWpo2zzyIO_-15" target="w-IKHhPdrbWpo2zzyIO_-17">
          <mxGeometry relative="1" as="geometry" />
        </mxCell>
        <mxCell id="w-IKHhPdrbWpo2zzyIO_-10" style="edgeStyle=orthogonalEdgeStyle;orthogonalLoop=1;jettySize=auto;html=1;entryX=0;entryY=0.5;entryDx=0;entryDy=0;" edge="1" parent="1" source="w-IKHhPdrbWpo2zzyIO_-3" target="w-IKHhPdrbWpo2zzyIO_-9">
          <mxGeometry relative="1" as="geometry" />
        </mxCell>
      </root>
    </mxGraphModel>
  </diagram>
</mxfile>
